<?xml version="1.0" standalone="no"?>
<!DOCTYPE svg PUBLIC "-//W3C//DTD SVG 20010904//EN"
 "http://www.w3.org/TR/2001/REC-SVG-20010904/DTD/svg10.dtd">
<svg version="1.0" xmlns="http://www.w3.org/2000/svg"
 width="1080.000000pt" height="1080.000000pt" viewBox="0 0 1080.000000 1080.000000"
 preserveAspectRatio="xMidYMid meet">
<metadata>
Created by potrace 1.14, written by Peter Selinger 2001-2017
</metadata>
<g transform="translate(0.000000,1080.000000) scale(0.100000,-0.100000)"
fill="#000000" stroke="none">
<path d="M5120 7525 c-150 -43 -275 -157 -338 -310 -11 -28 -109 -304 -218
-615 -108 -311 -226 -648 -261 -750 -36 -102 -69 -199 -74 -216 l-9 -31 -183
-6 c-244 -8 -335 -35 -425 -125 -64 -64 -87 -120 -87 -217 0 -68 4 -89 29
-139 34 -70 89 -125 154 -157 37 -18 69 -24 155 -27 120 -5 119 -3 91 -82 -21
-58 -197 -570 -279 -810 -35 -102 -100 -293 -146 -425 -80 -231 -83 -244 -83
-330 -1 -77 3 -98 26 -147 36 -77 103 -142 192 -184 131 -62 278 -57 408 13
58 32 148 123 178 183 12 24 84 226 160 449 151 443 356 1042 417 1216 l38
110 463 3 c366 2 462 0 462 -10 0 -13 -61 -189 -120 -348 -64 -172 -138 -398
-161 -490 -31 -125 -34 -387 -6 -489 41 -151 98 -257 195 -361 201 -218 510
-334 846 -317 682 34 1201 541 1553 1517 57 160 67 256 33 322 -53 104 -148
151 -305 152 -92 1 -105 -1 -165 -30 -88 -42 -133 -90 -166 -178 -95 -253
-220 -516 -312 -655 -208 -312 -443 -477 -653 -458 -79 7 -136 40 -167 97 -22
41 -23 54 -20 155 4 126 -46 -35 428 1360 611 1795 609 1789 620 1862 29 178
-62 364 -214 438 -215 105 -465 6 -591 -235 -25 -48 -133 -359 -300 -865
l-262 -790 -462 -3 c-405 -2 -463 0 -458 13 4 8 70 200 148 427 78 227 179
523 225 658 96 278 114 350 114 456 0 214 -139 368 -342 380 -47 2 -92 -1
-128 -11z"/>
</g>
</svg>
